<?xml version="1.0" encoding="iso-8859-1"?>
<!-- Generator: Adobe Illustrator 17.1.0, SVG Export Plug-In . SVG Version: 6.00 Build 0)  -->
<!DOCTYPE svg PUBLIC "-//W3C//DTD SVG 1.1//EN" "http://www.w3.org/Graphics/SVG/1.1/DTD/svg11.dtd">
<svg version="1.1" id="Capa_1" width="20px" height="20px" aria-label="Clear all breakpoints" xmlns="http://www.w3.org/2000/svg" xmlns:xlink="http://www.w3.org/1999/xlink" x="0px" y="0px"
	 viewBox="0 0 259.3 259.3" style="enable-background:new 0 0 259.3 259.3;" xml:space="preserve">
<g>
	<path d="M18.732,149.946H48.02c0.229,3.485,0.598,6.952,1.144,10.362c0.591,3.688,3.777,6.315,7.396,6.315
		c0.394,0,0.793-0.031,1.195-0.096c4.09-0.654,6.875-4.501,6.22-8.591c-0.81-5.059-1.221-10.26-1.221-15.46
		c0-42.977,27.818-78.229,62.821-80.851c0.248-0.019,0.492-0.053,0.74-0.068c0.581-0.036,1.168-0.036,1.753-0.054
		c0.563-0.017,1.123-0.052,1.69-0.052c4.804,0,9.596,0.619,14.244,1.839c0.013,0.003,0.027,0.005,0.04,0.008
		c0.12,0.031,0.241,0.051,0.362,0.076c0.156,0.032,0.312,0.064,0.468,0.086c0.121,0.017,0.241,0.028,0.362,0.038
		c0.165,0.015,0.329,0.026,0.492,0.03c0.058,0.001,0.116,0.01,0.174,0.01c0.045,0,0.088-0.008,0.133-0.009
		c0.259-0.004,0.516-0.021,0.77-0.052c0.04-0.005,0.08-0.006,0.12-0.011c0.301-0.041,0.597-0.103,0.889-0.18
		c0.065-0.017,0.129-0.039,0.193-0.057c0.229-0.067,0.454-0.145,0.674-0.233c0.076-0.03,0.152-0.059,0.227-0.092
		c0.27-0.118,0.535-0.247,0.789-0.395c0.032-0.019,0.062-0.042,0.094-0.061c0.223-0.135,0.437-0.282,0.645-0.44
		c0.076-0.058,0.15-0.118,0.225-0.178c0.184-0.15,0.36-0.31,0.529-0.478c0.047-0.046,0.096-0.089,0.141-0.136
		c0.212-0.221,0.409-0.457,0.593-0.705c0.036-0.049,0.069-0.101,0.105-0.15c0.157-0.222,0.301-0.453,0.434-0.693
		c0.02-0.035,0.045-0.066,0.064-0.102l25.211-47.283c1.949-3.654,0.565-8.197-3.089-10.146c-3.655-1.95-8.198-0.565-10.147,3.09
		l-22.548,42.289c-4.024-0.701-8.104-1.063-12.192-1.063h0c0,0,0,0,0,0h0c-1.189,0-2.371,0.037-3.548,0.095
		c-0.221,0.011-0.444,0.017-0.665,0.03c-0.895,0.053-1.784,0.129-2.671,0.216c-2.176,0.213-4.328,0.526-6.453,0.935
		c-0.044-0.095-0.08-0.191-0.128-0.285L94.868,5.352c-1.879-3.691-6.396-5.16-10.086-3.281C81.09,3.95,79.621,8.465,81.5,12.157
		l20.368,40.016c-16.949,7.198-31.312,20.76-40.972,38.207c-15.409-2.05-27.338-15.268-27.338-31.229c0-4.143-3.358-7.5-7.5-7.5
		s-7.5,3.357-7.5,7.5c0,21.998,15.355,40.465,35.907,45.279c-3.508,9.483-5.748,19.751-6.462,30.515H18.732
		c-4.142,0-7.5,3.357-7.5,7.5S14.59,149.946,18.732,149.946z"/>
	<path d="M240.569,134.946h-29.069c-0.706-10.554-2.891-20.892-6.451-30.564c20.445-4.891,35.695-23.308,35.695-45.23
		c0-4.143-3.358-7.5-7.5-7.5s-7.5,3.357-7.5,7.5c0,17.107-13.705,31.064-30.71,31.493c-1.358-0.146-2.771,0.068-4.089,0.714
		c-2.179,1.064-3.603,3.047-4.051,5.253c-0.008,0.039-0.015,0.079-0.023,0.118c-0.033,0.176-0.061,0.353-0.081,0.531
		c-0.014,0.113-0.023,0.226-0.031,0.34c-0.007,0.104-0.013,0.207-0.016,0.311c-0.003,0.085-0.013,0.167-0.013,0.253
		c0,0.106,0.011,0.21,0.016,0.315c0.001,0.017,0.002,0.034,0.003,0.051c0.06,1.24,0.418,2.399,1.009,3.41
		c5.889,12.272,9.005,26.272,9.005,40.536c0,44.678-30.058,81.025-67.003,81.025c-15.697,0-30.971-6.725-43.008-18.937
		c-2.909-2.95-7.657-2.983-10.606-0.075c-2.95,2.907-2.984,7.656-0.076,10.606c14.878,15.093,33.946,23.405,53.691,23.405
		c28.51,0,53.663-17.128,68.363-43.055l19.628,19.627c1.464,1.464,3.384,2.196,5.303,2.196s3.839-0.732,5.303-2.196
		c2.929-2.93,2.929-7.678,0-10.607l-23.484-23.483c3.614-9.629,5.921-20.077,6.644-31.038h29.054c4.142,0,7.5-3.357,7.5-7.5
		S244.711,134.946,240.569,134.946z"/>
	<path d="M257.103,2.196c-2.929-2.928-7.678-2.928-10.606,0L2.197,246.497c-2.929,2.93-2.929,7.678,0,10.607
		c1.464,1.464,3.384,2.196,5.303,2.196s3.839-0.732,5.303-2.196l244.3-244.301C260.032,9.874,260.032,5.125,257.103,2.196z"/>
</g>
<g>
</g>
<g>
</g>
<g>
</g>
<g>
</g>
<g>
</g>
<g>
</g>
<g>
</g>
<g>
</g>
<g>
</g>
<g>
</g>
<g>
</g>
<g>
</g>
<g>
</g>
<g>
</g>
<g>
</g>
</svg>
